<svg xmlns="http://www.w3.org/2000/svg" viewBox="0 0 820 482" width="820" height="482" font-family="'Segoe UI', Helvetica, Arial, sans-serif">
<rect x="0" y="0" width="820" height="482" rx="14" fill="#ffffff" stroke="#dbe3ef" />
<text x="24" y="34" fill="#122033" font-size="18" font-weight="700">Does replacing std::function help? (thread_pool_backend task storage)</text>
<text x="24" y="56" fill="#5b6b82" font-size="13">Build + invoke cost per task for detail::move_callable (std::function on C++17/20, std::move_only_function on C++23+); lower is better</text>
<line x1="64" y1="396.0" x2="796" y2="396.0" stroke="#dbe3ef" stroke-width="1" />
<text x="56" y="400.0" fill="#5b6b82" font-size="11" text-anchor="end">0.0</text>
<line x1="64" y1="336.0" x2="796" y2="336.0" stroke="#dbe3ef" stroke-width="1" />
<text x="56" y="340.0" fill="#5b6b82" font-size="11" text-anchor="end">6.0</text>
<line x1="64" y1="276.0" x2="796" y2="276.0" stroke="#dbe3ef" stroke-width="1" />
<text x="56" y="280.0" fill="#5b6b82" font-size="11" text-anchor="end">12.0</text>
<line x1="64" y1="216.0" x2="796" y2="216.0" stroke="#dbe3ef" stroke-width="1" />
<text x="56" y="220.0" fill="#5b6b82" font-size="11" text-anchor="end">18.0</text>
<line x1="64" y1="156.0" x2="796" y2="156.0" stroke="#dbe3ef" stroke-width="1" />
<text x="56" y="160.0" fill="#5b6b82" font-size="11" text-anchor="end">24.0</text>
<line x1="64" y1="96.0" x2="796" y2="96.0" stroke="#dbe3ef" stroke-width="1" />
<text x="56" y="100.0" fill="#5b6b82" font-size="11" text-anchor="end">30.0</text>
<text x="16" y="88" fill="#5b6b82" font-size="12" font-weight="600">ns per task</text>
<rect x="103.0" y="346.9" width="39.5" height="49.1" rx="3" fill="#94a3b8" />
<rect x="144.5" y="350.5" width="39.5" height="45.5" rx="3" fill="#2a7fff" />
<rect x="186.0" y="364.6" width="39.5" height="31.4" rx="3" fill="#16a34a" />
<rect x="227.5" y="363.5" width="39.5" height="32.5" rx="3" fill="#db2777" />
<text x="186.0" y="414.0" fill="#122033" font-size="12" font-weight="600" text-anchor="middle">small (8 B)</text>
<rect x="347.0" y="181.2" width="39.5" height="214.8" rx="3" fill="#94a3b8" />
<rect x="388.5" y="181.8" width="39.5" height="214.2" rx="3" fill="#2a7fff" />
<rect x="430.0" y="198.1" width="39.5" height="197.9" rx="3" fill="#16a34a" />
<rect x="471.5" y="178.7" width="39.5" height="217.3" rx="3" fill="#db2777" />
<text x="430.0" y="414.0" fill="#122033" font-size="12" font-weight="600" text-anchor="middle">medium (48 B)</text>
<rect x="591.0" y="177.7" width="39.5" height="218.3" rx="3" fill="#94a3b8" />
<rect x="632.5" y="181.9" width="39.5" height="214.1" rx="3" fill="#2a7fff" />
<rect x="674.0" y="189.0" width="39.5" height="207.0" rx="3" fill="#16a34a" />
<rect x="715.5" y="192.8" width="39.5" height="203.2" rx="3" fill="#db2777" />
<text x="674.0" y="414.0" fill="#122033" font-size="12" font-weight="600" text-anchor="middle">large (128 B)</text>
<rect x="64" y="440" width="14" height="14" rx="3" fill="#94a3b8" />
<text x="84" y="452" fill="#122033" font-size="12">C++17</text>
<rect x="130.0" y="440" width="14" height="14" rx="3" fill="#2a7fff" />
<text x="150.0" y="452" fill="#122033" font-size="12">C++20</text>
<rect x="196.0" y="440" width="14" height="14" rx="3" fill="#16a34a" />
<text x="216.0" y="452" fill="#122033" font-size="12">C++23</text>
<rect x="262.0" y="440" width="14" height="14" rx="3" fill="#db2777" />
<text x="282.0" y="452" fill="#122033" font-size="12">C++26</text>
</svg>