<svg xmlns="http://www.w3.org/2000/svg" viewBox="0 0 820 482" width="820" height="482" font-family="'Segoe UI', Helvetica, Arial, sans-serif">
<rect x="0" y="0" width="820" height="482" rx="14" fill="#ffffff" stroke="#dbe3ef" />
<text x="24" y="34" fill="#122033" font-size="18" font-weight="700">Do C++26 copyable callbacks help?</text>
<text x="24" y="56" fill="#5b6b82" font-size="13">Build + invoke cost per task for detail::copyable_callable (std::function before C++26, std::copyable_function on C++26); lower is better</text>
<line x1="64" y1="396.0" x2="796" y2="396.0" stroke="#dbe3ef" stroke-width="1" />
<text x="56" y="400.0" fill="#5b6b82" font-size="11" text-anchor="end">0.0</text>
<line x1="64" y1="336.0" x2="796" y2="336.0" stroke="#dbe3ef" stroke-width="1" />
<text x="56" y="340.0" fill="#5b6b82" font-size="11" text-anchor="end">6.0</text>
<line x1="64" y1="276.0" x2="796" y2="276.0" stroke="#dbe3ef" stroke-width="1" />
<text x="56" y="280.0" fill="#5b6b82" font-size="11" text-anchor="end">12.0</text>
<line x1="64" y1="216.0" x2="796" y2="216.0" stroke="#dbe3ef" stroke-width="1" />
<text x="56" y="220.0" fill="#5b6b82" font-size="11" text-anchor="end">18.0</text>
<line x1="64" y1="156.0" x2="796" y2="156.0" stroke="#dbe3ef" stroke-width="1" />
<text x="56" y="160.0" fill="#5b6b82" font-size="11" text-anchor="end">24.0</text>
<line x1="64" y1="96.0" x2="796" y2="96.0" stroke="#dbe3ef" stroke-width="1" />
<text x="56" y="100.0" fill="#5b6b82" font-size="11" text-anchor="end">30.0</text>
<text x="16" y="88" fill="#5b6b82" font-size="12" font-weight="600">ns per task</text>
<rect x="103.0" y="349.9" width="81.0" height="46.1" rx="3" fill="#16a34a" />
<rect x="186.0" y="363.4" width="81.0" height="32.6" rx="3" fill="#db2777" />
<text x="186.0" y="414.0" fill="#122033" font-size="12" font-weight="600" text-anchor="middle">small (8 B)</text>
<rect x="347.0" y="166.8" width="81.0" height="229.2" rx="3" fill="#16a34a" />
<rect x="430.0" y="191.5" width="81.0" height="204.5" rx="3" fill="#db2777" />
<text x="430.0" y="414.0" fill="#122033" font-size="12" font-weight="600" text-anchor="middle">medium (48 B)</text>
<rect x="591.0" y="176.7" width="81.0" height="219.3" rx="3" fill="#16a34a" />
<rect x="674.0" y="188.3" width="81.0" height="207.7" rx="3" fill="#db2777" />
<text x="674.0" y="414.0" fill="#122033" font-size="12" font-weight="600" text-anchor="middle">large (128 B)</text>
<rect x="64" y="440" width="14" height="14" rx="3" fill="#16a34a" />
<text x="84" y="452" fill="#122033" font-size="12">C++23</text>
<rect x="130.0" y="440" width="14" height="14" rx="3" fill="#db2777" />
<text x="150.0" y="452" fill="#122033" font-size="12">C++26</text>
</svg>